# xmcd
# 
# Track frame offsets:
#     150
#     15712
#     31622
#     47370
#     61385
#     76535
#     106042
#     123877
#     136367
#     154182
#     172640
#     187970
# 
# Disc length: 2812
# 
# Revision: 0
# Processed by: cddbd v1.5.2PL0 Copyright (c) Steve Scherf et al.
# Submitted via: BonkEnc v1.0.8
# 
DISCID=790afa0c
DTITLE=Pinetop Perkins and Friends - Pinetop Perkins and Friends
DYEAR=0
DGENRE=Blues
TTITLE0=3 Finger Boogie
TTITLE1=New Orleans, L.A.
TTITLE2=Just A Little Bit
TTITLE3=Shot of Rhythm and Blues
TTITLE4=Falling In Love Again
TTITLE5=Four O'Clock Blues
TTITLE6=Her Mind Is Gone
TTITLE7=Haven't Got the Price
TTITLE8=No More Doggin'
TTITLE9=Mojo Working
TTITLE10=Foolin' Around
TTITLE11=Your Cheatin' Heart
EXTD=
EXTT0=
EXTT1=
EXTT2=
EXTT3=
EXTT4=
EXTT5=
EXTT6=
EXTT7=
EXTT8=
EXTT9=
EXTT10=
EXTT11=
PLAYORDER=
